<svg width="184" height="40" viewBox="0 0 184 40" fill="none" xmlns="http://www.w3.org/2000/svg">
<g clip-path="url(#clip0_175_4495)">
<path d="M31.2466 8.65625H10.7255C10.428 8.65625 10.2248 8.75264 10.039 8.98582L0.108862 21.3846C-0.149276 21.7078 0.07957 22.187 0.492409 22.187H5.77692C6.18976 22.187 6.41861 22.6662 6.16047 22.9893L0.108862 30.5446C-0.149276 30.8678 0.07957 31.347 0.492409 31.347H20.9659C21.2643 31.347 21.5463 31.2111 21.733 30.9779L31.631 18.6186C31.8901 18.2955 31.6594 17.8153 31.2457 17.8163L25.9511 17.8328C25.5373 17.8337 25.3067 17.3536 25.5657 17.0304L31.6301 9.4586C31.8892 9.13546 31.6585 8.65533 31.2448 8.65625H31.2466Z" fill="#EFEDE9"/>
<path d="M117.948 9.1463V30.8538C117.948 31.1265 117.728 31.3468 117.457 31.3468H114.101C113.829 31.3468 113.609 31.1255 113.609 30.8538V9.1463C113.609 8.87364 113.83 8.65332 114.101 8.65332H117.457C117.729 8.65332 117.948 8.87456 117.948 9.1463Z" fill="#EFEDE9"/>
<path d="M146.642 8.07031C149.178 8.07031 151.54 9.00761 153.294 10.7096C155.272 12.6292 156.318 15.3741 156.318 18.6459V30.8538C156.318 31.1264 156.097 31.3467 155.826 31.3467H152.47C152.198 31.3467 151.979 31.1255 151.979 30.8538V18.6459C151.979 16.5455 151.406 14.7792 150.32 13.5371C149.35 12.4272 148.043 11.8158 146.64 11.8158C145.237 11.8158 143.931 12.4272 142.96 13.5371C141.875 14.7792 141.302 16.5455 141.302 18.6459V30.8538C141.302 31.1264 141.081 31.3467 140.81 31.3467H137.454C137.182 31.3467 136.963 31.1255 136.963 30.8538V18.6459C136.963 16.5455 136.391 14.7792 135.311 13.5371C134.346 12.4272 133.043 11.8149 131.645 11.8149C130.247 11.8149 128.946 12.4263 127.979 13.5371C126.899 14.7792 126.328 16.5455 126.328 18.6459V30.8538C126.328 31.1264 126.107 31.3467 125.836 31.3467H122.48C122.208 31.3467 121.989 31.1255 121.989 30.8538V18.6459C121.989 15.3741 123.034 12.6301 125.011 10.7096C126.763 9.00761 129.123 8.07031 131.654 8.07031C134.446 8.07031 137.058 9.23712 138.82 11.2705L138.888 11.3513C139.024 11.5129 139.275 11.5055 139.401 11.3357L139.439 11.2843C139.445 11.276 139.452 11.2678 139.458 11.2604C141.233 9.23253 143.851 8.07031 146.643 8.07031" fill="#EFEDE9"/>
<path d="M98.5651 8.18457C101.439 8.18457 104.117 9.18705 106.105 11.0075C108.345 13.0583 109.53 15.9887 109.53 19.4817V30.8569C109.53 31.1296 109.309 31.3499 109.038 31.3499H105.682C105.41 31.3499 105.191 31.1287 105.191 30.8569V19.4817C105.191 17.1564 104.476 15.201 103.125 13.8286C101.922 12.6067 100.303 11.9347 98.5669 11.9347C96.8304 11.9347 95.212 12.6076 94.0092 13.8286C92.6572 15.2019 91.9432 17.1564 91.9432 19.4817V30.8569C91.9432 31.1296 91.7226 31.3499 91.4516 31.3499H88.0958C87.8239 31.3499 87.6042 31.1287 87.6042 30.8569V19.4817C87.6042 15.9887 88.7888 13.0583 91.0287 11.0075C93.0169 9.18705 95.6944 8.18457 98.5687 8.18457" fill="#EFEDE9"/>
<path d="M54.0929 17.7914H46.0357C44.6882 17.7914 43.9468 16.9587 43.9468 15.4467C43.9468 13.9348 44.6882 13.0709 46.0357 13.0709H58.7266C58.9984 13.0709 59.2181 12.8497 59.2181 12.5779V9.14727C59.2181 8.87462 58.9975 8.6543 58.7266 8.6543H46.0357C40.7081 8.6543 39.541 13.5584 39.541 15.4477C39.541 17.202 40.7338 22.2098 46.0357 22.2098H54.0929C55.4605 22.2098 56.2129 23.0424 56.2129 24.5544C56.2129 26.0664 55.4797 26.9303 54.0929 26.9303H40.0335C39.7616 26.9303 39.5419 27.1515 39.5419 27.4232V30.8548C39.5419 31.1274 39.7625 31.3478 40.0335 31.3478H54.0929C59.4461 31.3478 60.6178 26.4437 60.6178 24.5544C60.6178 22.8001 59.4186 17.7923 54.0929 17.7923V17.7914Z" fill="#EFEDE9"/>
<path d="M79.1379 30.593C79.1589 30.3296 78.8798 30.1478 78.65 30.2763C78.5145 30.3525 78.3909 30.4205 78.336 30.4471C77.7978 30.7105 77.2174 30.8896 76.6709 31.0447C76.0833 31.2118 75.4333 31.3063 74.6855 31.3339C74.3999 31.344 74.0886 31.3495 73.7344 31.3495C73.6712 31.3495 73.609 31.3495 73.5458 31.3495C73.4826 31.3495 73.4204 31.3495 73.3572 31.3495C73.003 31.3495 72.6918 31.344 72.4062 31.3339C71.6574 31.3063 71.0084 31.2118 70.4207 31.0447C69.8742 30.8896 69.2948 30.7105 68.7556 30.4471C67.2416 29.7081 66.0296 28.6248 65.1517 27.2267C64.4487 26.1076 63.991 24.8527 63.7512 23.3902C63.6047 22.497 63.5864 21.6047 63.5864 20.9272C63.5864 18.9204 63.5864 16.9127 63.5883 14.9059V11.8608L63.5892 9.14532C63.5892 8.87267 63.8098 8.65234 64.0807 8.65234H67.4283C67.7002 8.65234 67.9199 8.87359 67.9199 9.14532V21.1172C67.9217 21.2054 67.9244 21.2944 67.9281 21.3807H67.9372C67.9345 21.4523 67.9318 21.523 67.9318 21.5955C67.9318 24.7058 70.4454 27.2267 73.5467 27.2267C76.648 27.2267 79.1617 24.7049 79.1617 21.5955C79.1617 21.5239 79.1589 21.4523 79.1562 21.3807H79.1644C79.1681 21.2944 79.1708 21.2063 79.1727 21.1181V17.7692V9.14624C79.1727 8.87359 79.3933 8.65326 79.6642 8.65326H83.0109C83.2828 8.65326 83.5024 8.8745 83.5024 9.14624V14.9068C83.5043 16.9136 83.5052 18.9213 83.5052 20.9281C83.5052 20.9878 83.5052 21.0502 83.5052 21.1145C83.5052 21.1668 83.5052 21.22 83.5034 21.2742V23.5564C83.5052 25.5632 83.5052 27.5709 83.5061 29.5777C83.5061 30.2552 83.4869 31.1475 83.3413 32.0408C83.1015 33.5032 82.6438 34.7581 81.9408 35.8772C81.0629 37.2744 79.851 38.3586 78.3369 39.0976C77.7987 39.3611 77.2183 39.5401 76.6718 39.6952C76.0842 39.8623 75.4342 39.9569 74.6864 39.9844C74.5811 39.9881 74.4703 39.9908 74.3568 39.9936C74.3367 39.9982 74.3156 40 74.2946 40H68.4178C68.146 40 67.9263 39.7788 67.9263 39.507V36.3683C67.9263 36.0957 68.1469 35.8753 68.4178 35.8753H73.6456C73.6456 35.8753 78.7141 35.9341 79.1397 30.594L79.1379 30.593Z" fill="#EFEDE9"/>
<path d="M171.16 8.07031C171.054 8.07031 170.949 8.07123 170.843 8.0749C167.584 8.16028 164.464 9.63003 162.283 12.1078C160.092 14.5974 159.02 17.9042 159.342 21.1806C159.629 24.1045 160.988 26.7832 163.165 28.723C165.34 30.6591 168.179 31.725 171.16 31.725C173.752 31.725 176.531 30.772 178.706 29.0407C178.917 28.8653 179.236 29.015 179.236 29.2904V30.8528C179.236 31.1255 179.457 31.3458 179.728 31.3458H182.584C182.856 31.3458 183.076 31.1246 183.076 30.8528V19.9807C183.076 13.4132 177.73 8.07031 171.159 8.07031H171.16ZM171.16 27.6223C167.501 27.6223 164.712 25.5384 163.881 22.183C163.3 19.8366 163.823 17.3919 165.316 15.4778C166.82 13.5491 169.044 12.4428 171.42 12.4428C172.031 12.4428 172.648 12.5181 173.254 12.6659C176.611 13.4839 178.695 16.2875 178.695 19.9816C178.695 24.5525 175.666 27.6232 171.159 27.6232L171.16 27.6223Z" fill="#EFEDE9"/>
<path d="M117.457 0H114.116C113.844 0 113.624 0.220713 113.624 0.492977V3.84375C113.624 4.11602 113.844 4.33673 114.116 4.33673H117.457C117.728 4.33673 117.948 4.11602 117.948 3.84375V0.492977C117.948 0.220713 117.728 0 117.457 0Z" fill="#EFEDE9"/>
</g>
<defs>
<clipPath id="clip0_175_4495">
<rect width="183.077" height="40" fill="white"/>
</clipPath>
</defs>
</svg>
